<svg version="1.1" id="Layer_1" xmlns="http://www.w3.org/2000/svg" x="0" y="0" viewBox="0 0 200 200" xml:space="preserve"><style>.st1{fill:#1d1d1b}</style><path d="M93 111.9H20.4v31.9H119v-31.9H93z" fill="#76ce31"/><path class="st1" d="M186.8 153.3h-3.1v-33.9h-12.6L168 88.6h-27.4V60.9H125c.1-1 .2-2 .2-3.1 0-12.4-4.9-23.7-12.9-32l2.2-2.2 5.5 5.5 4.4-4.4-15.6-15.3-4.4 4.4 5.5 5.5-2.4 2.4c-7.1-5.7-16-9.3-25.6-9.9V8.5h9.2V2.4H66.6v6.2h9.2v3.2c-9.6.6-18.5 4.2-25.6 9.9l-2.4-2.4 5.5-5.5L49 9.4 33.6 24.8l4.4 4.4 5.5-5.5 2.2 2.2c-8 8.3-12.9 19.6-12.9 32 0 1 .1 2.1.2 3.1H17.3v92.4h-3.1c-5.1 0-9.2 4.1-9.2 9.2s4.1 9.2 9.2 9.2h18.5c0 11.9 9.7 21.6 21.6 21.6s21.6-9.7 21.6-21.6h58.5c0 11.9 9.7 21.6 21.6 21.6 11.9 0 21.6-9.7 21.6-21.6h9.3c5.1 0 9.2-4.1 9.2-9.2-.1-5.1-4.2-9.3-9.3-9.3zm-24.4-58.5l2.5 24.6h-24.3V94.8h21.8zm-83.5-77c22.1 0 40 18 40 40.1s-18 40-40 40c-22.1 0-40-18-40-40 0-22.2 18-40.1 40-40.1zM17.3 165.6h-3.1c-1.7 0-3.1-1.4-3.1-3.1s1.4-3.1 3.1-3.1h3.1v6.2zm37 21.6c-8.5 0-15.4-6.9-15.4-15.4s6.9-15.4 15.4-15.4 15.4 6.9 15.4 15.4-6.9 15.4-15.4 15.4zm20.6-21.6c-2.7-8.9-10.9-15.4-20.7-15.4s-18 6.5-20.7 15.4h-10V67h10.2c4.3 21.1 23 37 45.3 37s41-15.9 45.3-37h10.2v98.7l-59.6-.1zm81.1 21.6c-8.5 0-15.4-6.9-15.4-15.4s6.9-15.4 15.4-15.4 15.4 6.9 15.4 15.4-7 15.4-15.4 15.4zm21.5-21.6h-.9c-2.7-8.9-10.9-15.4-20.7-15.4-6 0-11.5 2.5-15.4 6.5v-31.1h36.9v27.7l.1 12.3zm9.3 0h-3.1v-6.2h3.1c1.7 0 3.1 1.4 3.1 3.1s-1.4 3.1-3.1 3.1z"/><path class="st1" d="M54.3 162.6c-5.1 0-9.2 4.1-9.2 9.2s4.1 9.2 9.2 9.2 9.2-4.1 9.2-9.2-4.1-9.2-9.2-9.2zm0 12.3c-1.7 0-3.1-1.4-3.1-3.1s1.4-3.1 3.1-3.1c1.7 0 3.1 1.4 3.1 3.1s-1.4 3.1-3.1 3.1zM156 162.6c-5.1 0-9.2 4.1-9.2 9.2s4.1 9.2 9.2 9.2 9.2-4.1 9.2-9.2-4.2-9.2-9.2-9.2zm0 12.3c-1.7 0-3.1-1.4-3.1-3.1s1.4-3.1 3.1-3.1c1.7 0 3.1 1.4 3.1 3.1s-1.4 3.1-3.1 3.1zM69.7 57.8c0 5.1 4.1 9.2 9.2 9.2s9.2-4.1 9.2-9.2-4.1-9.2-9.2-9.2c-.5 0-1 .1-1.5.2L59.7 28.1l-4.7 4 17 19.7c-1.4 1.6-2.3 3.7-2.3 6zm12.3 0c0 1.7-1.4 3.1-3.1 3.1s-3.1-1.4-3.1-3.1 1.4-3.1 3.1-3.1 3.1 1.4 3.1 3.1z"/></svg>