<svg xmlns="http://www.w3.org/2000/svg" viewBox="0 0 512 512"><path d="M315.8 150.1c-11.5 0-22 4.3-30 11.5-8-7.1-18.5-11.5-30-11.5s-22 4.4-30 11.5c-8-7.1-18.5-11.5-30-11.5-24.8 0-45 20.2-45 45 0 8.3 6.7 15 15 15s15-6.7 15-15 6.7-15 15-15 15 6.7 15 15 6.7 15 15 15 15-6.7 15-15 6.7-15 15-15 15 6.7 15 15 6.7 15 15 15 15-6.7 15-15 6.7-15 15-15 15 6.7 15 15 6.7 15 15 15 15-6.7 15-15c-.1-24.8-20.2-45-45-45zm-60-89.9c-24.8 0-45 20.2-45 45 0 8.3 6.7 15 15 15s15-6.7 15-15 6.7-15 15-15 15 6.7 15 15 6.7 15 15 15 15-6.7 15-15c0-24.9-20.2-45-45-45z"/><path d="M457.1 230.1c14.4-11.5 23.5-30 23.5-50 0-33.1-26.9-59.9-59.9-59.9 0-33.9-28.2-60.8-61.4-59.9-7-34.2-37.2-60-73.4-60-10.3 0-20.4 2.2-30 6.5-9.6-4.3-19.6-6.5-30-6.5-36.2 0-66.5 25.8-73.4 60-33.3-.9-61.4 26-61.4 59.9C57.9 120.1 31 147 31 180.1c0 20.2 9.3 39 24 50.4L.8 446c-2.9 11.6 1.7 25.7 27.2 37 53.3 23.5 167.9 28.7 227.8 28.7 59.1 0 174.3-5.2 227.8-28.7 6.8-3 27-11.9 27.9-30 1.2-5 4.4 10.6-54.4-222.9zm-353-76.8c5.8 2.8 12.7 1.7 17.2-2.8s5.7-11.5 2.8-17.2c-11.9-24.2 11.5-50.4 36.9-41.1 10 3.6 20.6-4.1 20.1-14.8-1.3-27.2 20.3-47.1 44.7-47.1 7.7 0 15.3 2.1 22.4 6.3 4.7 2.7 10.4 2.7 15.1 0 7.2-4.2 14.7-6.3 22.4-6.3 24.4 0 45.9 19.9 44.7 47.1-.5 10.6 10 18.4 20.1 14.8 20.4-7.4 40.1 8 40.1 28 0 4.4-1.1 8.8-3.2 13.1-2.8 5.8-1.7 12.7 2.9 17.2 4.5 4.5 11.5 5.7 17.2 2.8 4.3-2.1 8.7-3.2 13.1-3.2 16.5 0 30 13.4 30 30 0 13.8-8.5 27-19.7 30.7-.1 0-.2.1-.2.1-.1 0-.2 0-.2.1-.8.3-79.4 29-174.6 29S82 211.3 81.2 211c-.1 0-.2-.1-.3-.1-.1 0-.2-.1-.2-.1-11.2-3.7-19.7-17-19.7-30.7 0-21.4 22.4-37 43.1-26.8zm308.4 317.4c-43.3 7.1-98.9 11.1-156.7 11.1-117.8 0-206-16-225.2-31.5l52.2-207.1c26.5 8.4 93.5 26.8 173 26.8 80.1 0 147.5-18.7 173.6-27l52.1 206.9c-3 2.7-17.1 12.3-69 20.8z"/></svg>