<svg xmlns="http://www.w3.org/2000/svg" viewBox="0 0 511 511"><path d="M507.6 241.6l-.5-.9c-1.9-3.1-19.8-31.4-51.7-59.2-22.3-19.5-63.9-39.8-63.9-39.8-37-29.3-101.5-45.6-133.5-44.2-7.3.3-13.7 4.7-13.1 12l1.6 25.6c-22.1 8.3-44 20.5-74.3 42.1-6.4-16.8-15.4-31-26.7-42.4-33.1-33.1-82-38-108.2-38-7.2 0-12.1.4-13 .5-12.3 1.1-21.9 10.8-23 22.9l-.1.7v.1c-.3 4.2-1.4 22 2 43.9 4.9 31.7 17.2 58.2 35.6 76.6 5 5 10.5 9.5 16.6 13.6-6.7 4.3-12.9 9.3-18.4 14.7-18.4 18.4-29.7 44.8-34.6 76.6-3.4 21.9-2.3 39.7-2 43.9l.1.8c1.1 12.1 10.8 21.8 23 22.9.9.1 5.7.5 13 .5 26.2 0 74.2-4.9 107.2-38 11.4-11.4 20.3-25.6 26.7-42.4 47.6 33.9 97.3 51.7 144 51.7 18.1 0 36.1-2.7 53.8-7.9 1.1-.2 2.1-.5 3.1-1 29-9 57.1-24.9 83.1-47.2 33.9-29.1 52.5-59 52.6-59.3l.7-1.1 1.2-3c3.2-8 2.7-17-1.3-24.7zM481 255.8c-3.3 5-19.4 28.4-46 51.3-17.6 15.1-35.8 26.8-54.6 34.9l-29.9 9.9c-11.9 2.7-23.9 4.1-36.1 4.1-53 0-100.6-26.9-131.2-49.5-6.5-4.8-14.9-6.2-22.6-3.8-7.7 2.4-13.9 8.5-16.5 16.2-5 14.8-12.2 27.1-21.6 36.4-25.4 25.4-64.5 29.2-86.1 29.2-2.5 0-4.7-.1-6.4-.1-.3-6.1-.4-18.6 1.9-33.5 2.8-17.7 8.7-42.5 26.2-60 4.8-4.8 10.5-9.1 16.8-12.8.5-.3 1-.6 1.5-1 7.4-5 12-13.8 12-22.9 0-8.9-4.4-16.7-11.8-21.1-6.3-3.7-12-8-16.8-12.8-29.4-29.4-29.7-79.3-29.1-93.5 1.7-.1 3.8-.1 6.4-.1 21.6 0 61.7 3.8 87.1 29.2 9.3 9.3 16.6 21.6 21.6 36.4 2.6 7.7 8.7 13.8 16.5 16.2 7.7 2.4 16.1 1 22.6-3.8 19.1-14.1 45.6-36.9 82.4-47.3 4.4-1.2 5.4-13 5.6-17 .1-1.7-1.5-10.1 2.6-10.5 19.5-1.9 74.4 13.9 104.9 38.5 0 0 37.6 20 55.4 35.5 26.4 23 42.2 46.6 45.3 51.5l-.1.4z"/><circle cx="382.6" cy="241" r="19.1"/></svg>