<svg xmlns="http://www.w3.org/2000/svg" viewBox="0 0 512.001 512.001"><path d="M203.923 172.187c-11.322 0-20.536 9.308-20.536 20.801 0 11.492 9.213 20.808 20.536 20.808 11.336 0 20.549-9.317 20.549-20.808-.001-11.494-9.213-20.801-20.549-20.801zm104-.163c-11.431 0-20.704 9.385-20.704 20.964 0 11.578 9.273 20.964 20.704 20.964 11.418 0 20.69-9.385 20.69-20.964 0-11.579-9.273-20.964-20.69-20.964z"/><path d="M452.855 192.704c-5.104-11.203-10.382-22.787-15.848-36.332a705.933 705.933 0 00-5.622-13.55 73.53 73.53 0 0029.181-19.393c12.536-13.617 19.44-31.314 19.44-49.832C480.005 33.015 446.989 0 406.407 0c-26.326 0-49.866 13.682-62.95 35.373C318.948 23.011 290.022 16.937 256 16.937c-34.022 0-62.947 6.074-87.457 18.436C155.459 13.682 131.919 0 105.593 0 65.012 0 31.995 33.015 31.995 73.598c0 18.518 6.904 36.216 19.44 49.833a73.53 73.53 0 0029.181 19.393 705.933 705.933 0 00-5.622 13.55c-5.466 13.545-10.745 25.129-15.848 36.332-15.324 33.632-27.428 60.197-27.428 103.604 0 29.804 8.194 55.401 24.356 76.083 13.86 17.737 33.686 31.89 58.928 42.064 22.238 8.963 46.693 14.132 70.341 17.091v56.933L256 512.001l70.657-23.52v-56.933c23.649-2.959 48.102-8.128 70.341-17.091 25.242-10.174 45.068-24.326 58.928-42.064 16.161-20.682 24.356-46.279 24.356-76.083.001-43.409-12.103-69.974-27.427-103.606zM406.407 31.295c23.325 0 42.303 18.976 42.303 42.303 0 19.038-12.999 35.604-30.754 40.689-10.708-20.423-23.732-39.717-40.969-55.639a149.29 149.29 0 00-7.221-6.242c7.418-12.917 21.192-21.111 36.641-21.111zM63.291 73.598c0-23.326 18.977-42.303 42.303-42.303 15.448 0 29.222 8.194 36.642 21.11a149.924 149.924 0 00-7.221 6.242c-17.236 15.922-30.26 35.217-40.969 55.639-17.756-5.084-30.755-21.65-30.755-40.688zm177.061 400.211l-23.715-7.894v-31.564c8.254.474 16.21.743 23.715.885v38.573zm-.955-131.381c-7.492-7.488-10.284-14.361-10.284-16.935 0-1.172.139-1.774.207-2 1.057-.898 5.863-3.347 26.68-3.347s25.623 2.448 26.68 3.347c.068.225.207.828.207 2 0 2.573-2.793 9.447-10.284 16.935-7.047 7.043-13.951 10.212-16.603 10.212-2.651-.001-9.556-3.169-16.603-10.212zm55.966 123.486l-23.714 7.894v-38.573a617.433 617.433 0 0023.714-.885v31.564zm89.937-80.486c-28.163 11.351-65.453 17.425-113.652 18.483v-23.374c21.731-8.939 42.534-33.933 42.534-55.044 0-14.721-7.34-25.917-20.668-31.525-8.635-3.633-19.504-5.116-37.515-5.116-18.01 0-28.879 1.482-37.515 5.116-13.328 5.607-20.668 16.802-20.668 31.525 0 21.111 20.804 46.105 42.534 55.044v23.374c-48.2-1.058-85.489-7.132-113.652-18.483-42.855-17.273-63.688-46.424-63.688-89.121 0-21.256 0-36.614 24.611-90.629 5.001-10.974 10.669-23.412 16.392-37.595 12.765-31.631 27.93-63.998 52.234-86.449 24.67-22.79 56.367-33.404 99.751-33.404s75.081 10.614 99.751 33.404c24.304 22.45 39.469 54.817 52.234 86.449 5.724 14.183 11.392 26.621 16.392 37.595 14.287 31.359 24.611 54.015 24.611 90.629.002 42.697-20.831 71.848-63.686 89.121z"/></svg>