<svg xmlns="http://www.w3.org/2000/svg" viewBox="0 0 512 512"><path d="M206 432c-5.523 0-10 4.478-10 10s4.477 10 10 10c5.514 0 10 4.486 10 10 0 5.522 4.477 10 10 10s10-4.478 10-10c0-16.542-13.458-30-30-30zm100 0c-16.542 0-30 13.458-30 30 0 5.522 4.477 10 10 10s10-4.478 10-10c0-5.514 4.486-10 10-10 5.523 0 10-4.478 10-10s-4.477-10-10-10zm10-176c0 16.542 13.458 30 30 30s30-13.458 30-30-13.458-30-30-30-30 13.458-30 30zm40 0c0 5.514-4.486 10-10 10s-10-4.486-10-10 4.486-10 10-10 10 4.486 10 10zm-190-30c-16.542 0-30 13.458-30 30s13.458 30 30 30 30-13.458 30-30-13.458-30-30-30zm0 40c-5.514 0-10-4.486-10-10s4.486-10 10-10 10 4.486 10 10-4.486 10-10 10z"/><path d="M416 56V10c0-5.522-4.477-10-10-10-37.734 0-70.803 27.851-83.968 63.249-5.832-3.45-12.363-4.776-19.302-3.869 5.738-25.611-6.032-40.196-13.673-49.667-1.518-1.882-2.952-3.659-3.829-5.049a10.002 10.002 0 00-16.629-.429c-4.214 5.974-6.772 12.665-9.248 19.137-4.94 12.919-7.964 19.735-17.604 21.348-3.858.675-33.114 6.053-52.494 16.893C176.455 29.674 145.801 0 106 0c-5.523 0-10 4.478-10 10v46c0 29.005 13.83 55.788 36.799 72.601C108.375 154.773 96 180.767 96 206c0 43.549 25.809 142.388 55.731 214.269C147.929 426.919 146 434.204 146 442c0 19.679 12.126 37.792 34.144 51.002C200.563 505.253 227.502 512 256 512s55.438-6.747 75.856-18.998C353.874 479.792 366 461.679 366 442c0-7.796-1.929-15.079-5.731-21.731C390.191 348.388 416 249.549 416 206c0-25.234-12.376-51.229-36.799-77.399C402.17 111.788 416 85.005 416 56zM192.769 83.362c9.532-8.766 37.216-16.27 52.351-18.928 21.304-3.563 28.014-21.107 32.912-33.918l.568-1.484c5.935 8.944 9.361 20.685-1.542 42.491-3.667 7.323.958 12.079 1.922 12.958 5.826 5.313 12.336 1.262 14.787-.264 13.02-8.101 18.166-6.224 25.056 3.356 3.502 4.814 5.234 9.595 5.148 14.225-.23 13.361-15.78 25.819-30.159 29.071-6.011 1.359-11.155.775-12.231-1.387a10.002 10.002 0 00-8.335-5.523 10.033 10.033 0 00-8.951 4.455C258.869 136.6 256 146.139 256 156c0 10.785 3.414 20.921 9.374 29.217-25.595-3.817-45.85-21.185-48.961-43.356a10 10 0 00-19.054-2.642L182.656 172.6c-13.927-21.39-15.844-65.509 10.113-89.238zM116 56V20.889c27.466 4.904 49.214 29.351 56.877 54.336-7.574 8.82-13.105 19.272-16.492 31.174a310.915 310.915 0 00-9.087 7.941A69.878 69.878 0 01116 56zm140 436c-48.785 0-90-22.897-90-50 0-31.738 57.47-40 90-40 32.504 0 90 8.249 90 40 0 27.103-41.215 50-90 50zm140-286c0 39.009-23.518 129.906-50.68 197.958C326.216 389.863 294.809 382 256 382c-38.809 0-70.216 7.863-89.32 21.958C139.518 335.906 116 245.009 116 206c0-21.667 12.359-44.95 36.733-69.245.795 27.624 12.143 53.609 29.204 61.652 5.069 2.389 11.142.144 13.416-5.015l10.461-23.752C219.499 191.454 246.033 206 276 206c6.726 0 13.41-.729 19.866-2.169a10.001 10.001 0 00.897-19.276C284.344 180.543 276 169.068 276 156c0-2.101.216-4.177.641-6.199 5.999 2.174 13.379 2.43 21.584.575 16.576-3.749 33.712-15.553 41.471-31.22 6.056 4.964 11.654 9.917 16.725 14.805C382.684 159.267 396 183.504 396 206zm-31.292-91.664c-6.405-5.831-13.435-11.703-21.018-17.542-.691-5.698-2.66-11.29-5.872-16.703 6.239-27.097 28.518-54.164 58.182-59.242V56a69.876 69.876 0 01-31.292 58.336z"/></svg>