<svg xmlns="http://www.w3.org/2000/svg" viewBox="0 0 511 511"><path d="M508.9 150.5c-1.1-27-5.6-45.7-11.8-61.8-6.5-17.1-16.4-32.5-29.4-45.2-12.7-13-28.2-22.9-45.1-29.3C406.4 8 387.8 3.5 360.8 2.4 333.5 1.1 324.9.7 255.7.7s-77.8.3-105 1.5C123.7 3.3 105 7.8 88.9 14c-17.1 6.5-32.5 16.4-45.2 29.6-13 12.7-22.9 28.2-29.3 45.1-6.2 16.2-10.7 34.8-11.8 61.8C1.3 177.8.9 186.4.9 255.6s.3 77.8 1.5 105c1.1 27 5.6 45.7 11.8 61.8 6.5 17.1 16.6 32.5 29.4 45.2 12.7 13 28.2 22.9 45.1 29.3 16.2 6.2 34.8 10.7 61.8 11.8 27.1 1.1 35.8 1.5 105 1.5s77.8-.3 105-1.5c27-1.1 45.7-5.6 61.8-11.8 34.3-13.3 61.3-40.3 74.5-74.5 6.2-16.2 10.7-34.8 11.8-61.8 1.1-27.1 1.5-35.8 1.5-105s.1-77.8-1.2-105.1zm-45.8 208.1c-1.1 24.8-5.2 38.4-8.8 47.3-8.5 22.2-26.1 39.8-48.4 48.4-8.9 3.4-22.6 7.6-47.3 8.8-26.9 1.1-34.9 1.5-103 1.5s-76.2-.3-103-1.5c-24.8-1.1-38.4-5.2-47.3-8.8-11.1-4.1-21.2-10.6-29.3-19-8.4-8.3-14.9-18.2-19-29.3-3.4-8.9-7.6-22.6-8.8-47.3-1.1-26.9-1.5-34.9-1.5-103s.3-76.2 1.5-103c1.1-24.8 5.2-38.4 8.8-47.3 4.1-11.1 10.6-21.2 19.1-29.3 8.3-8.4 18.2-14.9 29.3-19 8.9-3.4 22.6-7.6 47.3-8.8 26.9-1.1 34.9-1.5 103-1.5s76.2.3 103 1.5c24.8 1.1 38.4 5.2 47.3 8.8 11.1 4.1 21.2 10.6 29.3 19 8.4 8.3 14.9 18.2 19 29.3 3.4 8.9 7.6 22.6 8.8 47.3 1.1 26.9 1.5 34.9 1.5 103s-.4 76-1.5 102.9z"/><path d="M255.6 124.6c-72.2 0-130.9 58.6-130.9 130.9s58.6 130.9 130.9 130.9 130.9-58.6 130.9-130.9-58.6-130.9-130.9-130.9zm0 215.9c-46.9 0-84.9-38-84.9-84.9s38-84.9 84.9-84.9 84.9 38 84.9 84.9-38 84.9-84.9 84.9zm166.7-221c0 16.8-13.6 30.6-30.6 30.6-16.8 0-30.6-13.6-30.6-30.6 0-16.8 13.6-30.6 30.6-30.6 16.8.1 30.6 13.7 30.6 30.6z"/></svg>