<svg xmlns="http://www.w3.org/2000/svg" viewBox="0 0 512 512"><path d="M256 0C153.8 0 70.6 83.2 70.6 185.4c0 126.9 165.9 313.2 173 321 6.6 7.4 18.2 7.4 24.8 0 7.1-7.9 173-194.1 173-321C441.4 83.2 358.2 0 256 0zm16.2 110.9c2.7-8.2 8-15 15-19.2 7.3-4.4 15.4-5.4 22.9-2.9 7.5 2.5 13.4 8.2 16.6 16.1 3 7.5 3.2 16.2.5 24.3-4.7 14.2-17.1 23.4-29.8 23.4-2.7 0-5.5-.4-8.1-1.3-15.2-5-22.8-23.1-17.1-40.4zm-37.4-40.3c17.4 0 31.6 16.1 31.6 36 0 19.8-14.2 36-31.6 36-17.4 0-31.6-16.1-31.6-36s14.2-36 31.6-36zm-81.5 81.5c-6.1-15.8.3-33 14.2-38.4 6.9-2.7 14.6-2.1 21.5 1.7 6.6 3.6 11.9 9.7 14.7 17.2 2.9 7.5 3.1 15.5.6 22.6-2.6 7.5-7.9 13.1-14.8 15.7-2.8 1.1-5.8 1.6-8.7 1.6-11.3.1-22.7-7.8-27.5-20.4zm169.9 75.4c-.5 7.2-3.2 13.8-7.9 19.3-4.7 5.4-10.8 9.2-17.8 10.8-2.5.6-4.9.8-7.4.8-4.5 0-9-.9-13.3-2.8-16.5-7.2-35.3-7.3-51.8-.2l-.4.2c-6.6 2.9-13.7 3.6-20.7 2s-13.1-5.3-17.8-10.8c-4.7-5.5-7.4-12.1-7.9-19.3-.5-7.1 1.3-14.1 5.2-20.1l23.3-36.4c9.7-15.1 26.1-24.1 44.1-24.1 17.9 0 34.4 9 44.1 24.1l23.3 36.4c3.7 6 5.5 13 5 20.1zm36.1-39.6c-6.4 8.6-16 13.3-25.2 13.3-5.3 0-10.5-1.5-14.8-4.8-12-8.9-13.6-27.2-3.5-40.8 10.1-13.6 28-17.4 40-8.6 12 9 13.5 27.3 3.5 40.9z"/></svg>