<svg xmlns="http://www.w3.org/2000/svg" viewBox="0 0 429 429"><path d="M167.1 172.8v.2c-.7 12.9 6.5 25 18.4 30.8l.1.1c4.2 2 7.7 5.3 9.8 9.5v.1c6 11.5 18.5 18.4 31.7 17.7h.2c4.8-.3 9.6 1 13.7 3.6 11.2 7 25.5 7 36.7 0 4.1-2.6 8.8-3.8 13.7-3.6h.2c13.2.7 25.7-6.2 31.7-17.7v-.1c2.2-4.1 5.6-7.5 9.9-9.5h.1c11.9-5.8 19.2-17.9 18.4-30.8v-.2c-.2-4.5 1-9.1 3.6-12.8 7.4-10.8 7.4-25.1 0-35.9-2.6-3.8-3.8-8.3-3.6-12.8v-.2c.7-12.9-6.5-25-18.4-30.8l-.1-.1c-4.2-2-7.6-5.3-9.8-9.4l-.1-.1c-6-11.5-18.5-18.4-31.7-17.7h-.2c-4.8.3-9.6-1-13.6-3.6-11.2-7-25.5-7-36.7 0-4.1 2.6-8.8 3.8-13.7 3.5h-.2c-13.2-.7-25.7 6.2-31.7 17.7v.1c-2.2 4.1-5.6 7.5-9.8 9.5l-.1.1c-11.9 5.8-19.2 17.9-18.4 30.8v.2c.2 4.5-1 9.1-3.6 12.8-7.4 10.8-7.4 25.1 0 35.9 2.5 3.6 3.8 8.1 3.5 12.7z" fill="#76ce31"/><path d="M127.1 186.1v.3c-1.1 18.5 9.3 35.9 26.4 44.2l.2.1c6 2.9 11 7.6 14.1 13.6l.1.1c8.6 16.4 26.5 26.4 45.5 25.4h.3c6.9-.4 13.7 1.4 19.6 5.1 16.1 10.1 36.5 10.1 52.6 0 5.8-3.7 12.7-5.5 19.6-5.1h.3c19 1 36.8-9 45.5-25.4v-.1c3.1-5.9 8.1-10.7 14.1-13.6l.1-.1c17.1-8.3 27.5-25.7 26.4-44.2v-.3c-.4-6.5 1.5-13 5.2-18.4 10.6-15.5 10.6-36 0-51.5-3.7-5.4-5.5-11.8-5.2-18.4v-.3c1.1-18.5-9.3-35.9-26.4-44.2l-.2-.1c-6-2.9-11-7.6-14.1-13.5l-.1-.2c-8.6-16.4-26.5-26.4-45.5-25.4h-.3c-6.9.4-13.7-1.4-19.6-5.1a49.444 49.444 0 00-52.6 0c-5.8 3.7-12.7 5.5-19.6 5.1h-.3c-19-1-36.8 9-45.5 25.4l-.1.1c-3.1 5.9-8.1 10.7-14.1 13.6l-.2.1c-17.1 8.3-27.5 25.7-26.4 44.2v.3c.4 6.5-1.5 13-5.2 18.4-10.6 15.5-10.6 36 0 51.5 3.9 5.4 5.7 11.9 5.4 18.4zm8-60.8c5.7-8.3 8.5-18.3 8-28.3v-.3c-.6-12.3 6.3-23.7 17.4-28.9l.1-.1c9.1-4.4 16.6-11.6 21.3-20.5l.1-.1c5.7-10.9 17.7-17.5 30.5-16.8h.3c10.2.6 20.3-2.1 28.9-7.5 10.9-6.8 24.7-6.8 35.6 0 8.6 5.5 18.7 8.1 28.9 7.5h.3c12.8-.7 24.7 5.9 30.5 16.8l.1.2c4.7 8.9 12.2 16.1 21.3 20.5l.1.1c11.3 5.5 18.2 16.8 17.5 28.9v.3c-.5 10.1 2.3 20 8 28.3 6.9 10.1 6.9 23.3 0 33.4-5.7 8.3-8.5 18.3-8 28.3v.3c.7 12.1-6.2 23.4-17.5 28.9l-.1.1c-9.1 4.4-16.6 11.6-21.3 20.5l-.1.1c-5.7 10.9-17.7 17.5-30.5 16.8h-.3c-10.2-.6-20.3 2.1-29 7.5-10.9 6.8-24.7 6.8-35.6 0-7.8-5-16.9-7.6-26.2-7.6-.9 0-1.8 0-2.7.1h-.3c-12.6.8-24.5-5.8-30.5-16.9l-.1-.2c-4.7-8.9-12.2-16.1-21.3-20.5l-.1-.1c-11.3-5.5-18.2-16.8-17.5-28.9v-.3c.5-10.1-2.3-20-8-28.3-6.7-10-6.7-23.2.2-33.3z"/><path d="M215 213.2c3.2 2 7.5 1 9.5-2.2l81.6-130.7c1.3-2.1 1.4-4.7.3-6.9-1.2-2.2-3.4-3.6-5.9-3.7s-4.8 1.2-6.1 3.3l-81.6 130.7c-2 3.2-1 7.5 2.2 9.5zm7.4-70.8c16.8 0 30.4-15.6 30.4-34.7S239.1 73 222.4 73 192 88.6 192 107.7s13.6 34.7 30.4 34.7zm0-55.6c9.2 0 16.6 9.4 16.6 20.9s-7.5 20.9-16.6 20.9c-9.2 0-16.6-9.4-16.6-20.9s7.4-20.9 16.6-20.9zm43.8 89.6c0 19.1 13.6 34.7 30.4 34.7s30.4-15.6 30.4-34.7-13.6-34.7-30.4-34.7c-16.8 0-30.4 15.5-30.4 34.7zm47 0c0 11.5-7.5 20.9-16.6 20.9-9.2 0-16.6-9.4-16.6-20.9s7.5-20.9 16.6-20.9c9.2 0 16.6 9.3 16.6 20.9z" fill="#fff"/><path d="M428 314.5c-10.6-18.8-34-25.9-53.3-16.2l-62.6 29.6c-8.6-16.1-25.2-26.3-43.4-26.8l-57.8-1.6c-9.1-.3-18.1-2.6-26.3-6.8l-5.9-3c-30.1-15.7-66-15.6-96 .1l.4-13.3c.1-4.4-3.4-8.1-7.8-8.2L12 266.4c-4.4-.1-8.1 3.4-8.2 7.8L0 413.2c-.1 4.4 3.4 8.1 7.8 8.2l63.3 1.7h.2c4.3 0 7.9-3.4 8-7.8l.2-6.6 16.5-8.8c6.5-3.5 14-4.3 21.1-2.3l98.3 27.6c.2.1.3.1.5.1 7.1 1.5 14.3 2.2 21.6 2.2 15.4 0 30.6-3.3 44.5-9.7.3-.2.7-.3 1-.5l142.5-92.2c3.4-2.3 4.5-6.9 2.5-10.6zM16.2 405.6l3.4-123 47.4 1.3-3.4 123-47.4-1.3zm258.5-2.1c-17.4 7.8-36.7 10-55.4 6.2l-98-27.5c-11-3.1-22.8-1.8-32.9 3.6l-8.4 4.5 2.3-81.8c26.6-17.7 60.8-19.5 89.2-4.8l5.9 3c10.3 5.3 21.6 8.2 33.2 8.6l57.8 1.6c16.2.5 30 12 33.3 27.9l-86-2.4c-4.4-.1-8.1 3.4-8.2 7.8-.1 4.4 3.4 8.1 7.8 8.2l94.9 2.6h.2c4.3 0 7.9-3.4 8-7.8.1-3.5-.2-6.9-.8-10.4l64.2-30.3.2-.1c9.1-4.6 20.1-3.1 27.6 3.9l-134.9 87.2z"/></svg>