<svg xmlns="http://www.w3.org/2000/svg" viewBox="0 0 380.014 380.014"><path d="M308.071 227.314l-61.395-167.45c-3.512-9.58-8.953-18.778-16.165-27.33-8.337-9.913-19.347-18.212-31.841-24.003C186.446 2.87 173.492 0 160.169 0c-10.672 0-21.217 1.882-31.342 5.594-22.975 8.424-40.52 25.207-50.484 45.675a98.847 98.847 0 00-35.345 22.703c-18.612 18.613-28.862 43.358-28.862 69.677v8h23.291c3.168 11.973 9.403 22.838 18.284 31.719 13.049 13.038 30.3 20.324 48.688 20.631l20.791 56.706c7.636 20.826 21.225 38.437 39.299 50.929a105.482 105.482 0 0029.107 14.117v39.228h16V329.3c3.305.466 6.641.78 10 .93v34.75h16v-35.266a106.183 106.183 0 0025.166-5.878l3.171-1.163 101.946 57.343-57.808-152.702zm-32.786-37.751l35.672 92.475c-2.715.426-5.518.64-8.392.64-44.024 0-96.007-48.242-109.693-88.185-5.14-15 2.881-31.384 17.881-36.523a50.722 50.722 0 0116.474-2.759c21.704-.002 41.017 13.804 48.058 34.352zM54.314 85.283a82.859 82.859 0 0116.768-12.932c-3.483 16.314-2.568 33.775 3.593 50.577l4.664 12.72H30.515c1.819-19.024 10.108-36.673 23.799-50.365zm12.708 86.769c-5.834-5.834-10.188-12.775-12.871-20.403h31.053l13.16 35.892c-11.825-1.56-22.76-6.915-31.342-15.489zm188.232 136.76c-10.014 3.672-20.421 5.534-30.932 5.534-37.338 0-71.14-23.77-84.111-59.148L89.696 117.42c-14.335-39.097 5.69-82.523 44.639-96.804C142.689 17.553 151.382 16 160.169 16c10.984 0 21.677 2.372 31.776 7.049 10.381 4.811 19.482 11.652 26.328 19.792 6.012 7.128 10.514 14.709 13.382 22.531l30.75 83.87a66.657 66.657 0 00-35.179-10.032 66.689 66.689 0 00-21.662 3.624c-23.344 8-35.828 33.5-27.829 56.846 7.797 22.753 26.143 47.718 49.075 66.782 24.991 20.775 51.895 32.217 75.755 32.217 5.102 0 10.056-.541 14.813-1.587l17.934 47.374-69.964-39.353-10.094 3.699z"/><path d="M189.885 96.403c0-18.198-14.806-33.003-33.004-33.003s-33.003 14.805-33.003 33.003 14.805 33.003 33.003 33.003 33.004-14.804 33.004-33.003zm-33.003 17.004c-9.375 0-17.003-7.628-17.003-17.003S147.507 79.4 156.882 79.4c9.376 0 17.004 7.628 17.004 17.003s-7.628 17.004-17.004 17.004z"/></svg>