<svg xmlns="http://www.w3.org/2000/svg" viewBox="0 0 512 512" fill="#6fc444"><path d="M342.4 271.4c-23-35.9-62.3-57.4-105-57.4s-81.9 21.5-105 57.4L76.9 358c-9.2 14.4-13.5 31-12.3 48 1.2 17 7.6 32.9 18.7 45.9s25.8 21.8 42.4 25.6 33.7 2.2 49.3-4.7l1-.5c39.3-16.9 84.3-16.8 123.5.5 10.1 4.4 20.8 6.7 31.7 6.7 5.9 0 11.8-.7 17.7-2 16.6-3.8 31.3-12.7 42.4-25.6 11.1-13 17.6-28.8 18.8-45.9s-3.1-33.6-12.3-48l-55.4-86.6zm-250.5-.2c16.5-6.3 29.1-19.7 35.3-37.5 6-17 5.5-36.1-1.4-53.9-6.9-17.8-19.3-32.3-35.1-40.9-16.6-9-34.8-10.5-51.3-4.1C6.2 147.5-9 188.5 5.5 226.2c11.6 30 38.5 48.9 65.8 48.9 6.9 0 13.9-1.3 20.6-3.9zm107.7-67.8c41.5 0 75.2-38.4 75.2-85.7 0-47.3-33.7-85.7-75.2-85.7s-75.2 38.4-75.2 85.7c0 47.2 33.7 85.7 75.2 85.7zm129.9 21c6.4 2.1 12.9 3.1 19.4 3.1 30.2 0 59.7-22 71-55.8 6.5-19.5 6.1-40.1-1.2-58C411 95 397 81.4 379 75.4c-17.9-6-37.4-3.5-54.7 7-16.5 10-29.2 26.2-35.7 45.7-13.5 41.1 4.8 84.3 40.9 96.3zm158.4-10c-28.6-21.1-71.4-12-95.4 20.4s-20.2 76 8.3 97.1c10.4 7.7 22.7 11.4 35.3 11.4 21.9 0 44.8-11.2 60.1-31.8 24-32.3 20.2-75.9-8.3-97.1z"/></svg>