<svg viewBox="0 0 512 512" xmlns="http://www.w3.org/2000/svg"><path d="M512 215.82c0-30.418-24.746-55.164-55.168-55.164H439.75L387.309 34.051C375.668 5.953 343.336-7.438 315.23 4.199c-13.613 5.637-24.218 16.242-29.855 29.856-5.64 13.613-5.637 28.61.004 42.222l34.95 84.38H191.675l34.949-84.38c11.64-28.105-1.754-60.437-29.855-72.078-28.106-11.64-60.438 1.754-72.079 29.856L72.25 160.656H55.168C24.75 160.656 0 185.402 0 215.82c0 25.817 17.828 47.54 41.816 53.528l25.309 189.808c1.89 14.196 9.188 27.489 20.535 37.422 11.352 9.938 25.488 15.41 39.809 15.41h257.066c14.32 0 28.461-5.472 39.809-15.41 11.351-9.933 18.644-23.226 20.535-37.422l25.309-189.812C494.175 263.359 512 241.637 512 215.82zM313.094 64.797c-2.574-6.211-2.574-13.055-.004-19.266 2.574-6.207 7.41-11.043 13.62-13.617 12.821-5.309 27.575.8 32.884 13.621l47.683 115.121h-54.476zM152.406 45.535c5.313-12.82 20.063-18.93 32.883-13.62 12.82 5.308 18.93 20.062 13.617 32.882l-39.703 95.86h-54.48zm262.739 409.656c-1.938 14.528-15.954 26.797-30.61 26.797H127.47c-14.653 0-28.672-12.27-30.606-26.797L72.301 270.988h367.402zm41.687-214.203H55.168C41.289 240.988 30 229.7 30 215.82c0-13.875 11.29-25.164 25.168-25.164h27.02c.027 0 .054.004.082.004.035 0 .07-.004.105-.004h347.25c.035 0 .07.004.105.004.028 0 .055-.004.083-.004h27.019c13.875 0 25.168 11.29 25.168 25.164 0 13.88-11.29 25.168-25.168 25.168zm0 0"/><path d="M256.004 321.32c-8.285 0-15.004 6.72-15.004 15v80.336c0 8.285 6.719 15 15.004 15 8.281 0 15-6.715 15-15V336.32c0-8.28-6.719-15-15-15zm80.332 0c-8.285 0-15 6.72-15 15v80.336c0 8.285 6.715 15 15 15s15-6.715 15-15V336.32c0-8.28-6.715-15-15-15zm-160.668 0c-8.285 0-15 6.72-15 15v80.336c0 8.285 6.715 15 15 15s15-6.715 15-15V336.32c0-8.28-6.715-15-15-15zm0 0"/></svg>