<svg xmlns="http://www.w3.org/2000/svg" viewBox="0 0 512 512"><path d="M312 440H104c-22.1 0-40-17.9-40-40V248c0-22.1 17.9-40 40-40h208c22.1 0 40 17.9 40 40v152c0 22.1-17.9 40-40 40z" fill="#76ce31"/><path d="M208 320c-13.9 0-38 12.8-51.5 27.5-8.9 9.6-13.2 19.7-12.5 29.2.7 8.8 4.8 16.8 11.5 22.6 7.7 6.5 18.3 9.7 29.1 8.8 13-1.1 18.8-8.8 22.2-13.3.3-.5.8-1 1.1-1.5.4.5.8 1 1.1 1.5 3.4 4.6 9.2 12.2 22.2 13.3 1.2.1 2.5.2 3.7.2 9.5 0 18.6-3.2 25.4-8.9 6.8-5.7 10.8-13.8 11.5-22.6.7-9.5-3.6-19.6-12.5-29.2C246 332.8 221.9 320 208 320zm42.1 67c-4.4 3.8-10.8 5.6-17.4 5-5.9-.5-7.9-3.2-10.8-7-2.7-3.6-6.3-8.4-13.2-9h-.7l-.7.1c-6.9.6-10.6 5.5-13.2 9-2.8 3.8-4.9 6.5-10.8 7-6.6.6-13-1.3-17.4-5-3.5-3-5.6-7-5.9-11.6-.5-6.2 4.2-12.7 8.2-17.1 12-13 32.1-22.3 39.8-22.3s27.8 9.4 39.8 22.3c4 4.4 8.7 10.8 8.2 17.1-.3 4.5-2.4 8.5-5.9 11.5zM240 272c0-17.6-14.4-32-32-32s-32 14.4-32 32 14.4 32 32 32 32-14.4 32-32zm-48 0c0-8.8 7.2-16 16-16s16 7.2 16 16-7.2 16-16 16-16-7.2-16-16zm-24 32c0-13.2-10.8-24-24-24s-24 10.8-24 24 10.8 24 24 24 24-10.8 24-24zm-32 0c0-4.4 3.6-8 8-8s8 3.6 8 8-3.6 8-8 8-8-3.6-8-8zm136-24c-13.2 0-24 10.8-24 24s10.8 24 24 24 24-10.8 24-24-10.8-24-24-24zm0 32c-4.4 0-8-3.6-8-8s3.6-8 8-8 8 3.6 8 8-3.6 8-8 8z" fill="#fff"/><path d="M440 136C440 65.4 382.6 8 312 8c-17.9 0-35.3 3.9-51.8 11.2C244.2 12.1 226.6 8 208 8 137.4 8 80 65.4 80 136H8v312c0 30.9 25.1 56 56 56h384c30.9 0 56-25.1 56-56V136h-64zm48 310.9l-32-26.7V152h32v294.9zm-48-26.7l-32 26.7V152h32v268.2zm-132.1-364c1.4-.1 2.7-.2 4.1-.2 44.1 0 80 35.9 80 80h-56c0-30.2-10.5-57.9-28.1-79.8zM312 24c61.8 0 112 50.2 112 112h-16c0-52.9-43.1-96-96-96-5.8 0-11.7.7-17.6 1.8-5-4.6-10.2-8.8-15.8-12.5 10.8-3.4 22-5.3 33.4-5.3zM64 488c-22.1 0-40-17.9-40-40V152h56v32h16v-48c0-61.8 50.2-112 112-112s112 50.2 112 112v48h16v-32h56v296c0 15.7 6.5 29.8 16.9 40H64zm384 0c-16.1 0-29.9-9.6-36.3-23.4l36.3-30.2 36.3 30.2c-6.4 13.8-20.2 23.4-36.3 23.4z"/><path d="M208 40c-52.9 0-96 43.1-96 96v48h16v-32h160v32h16v-48c0-52.9-43.1-96-96-96zm0 16c1.4 0 2.7.1 4.1.2C193.9 78.8 184 106.6 184 136h-56c0-44.1 35.9-80 80-80zm22.6 3.3c5.6 1.6 10.9 3.9 15.9 6.6C227.2 84 216 109.4 216 136h-16c0-28.8 10.9-55.8 30.6-76.7zM232 136c0-23.6 10.2-45.3 28.1-60.6 17 14.7 27.9 36.4 27.9 60.6h-56z"/></svg>