<svg height="512pt" viewBox="-11 0 512 512.002" width="512pt" xmlns="http://www.w3.org/2000/svg"><g fill-rule="evenodd"><path d="M465.957 233.191c-16.504-17.273-38.836-26.789-62.883-26.789-22.515 0-43.832 8.516-60.02 23.98l-1.019.973 3.582-38.656 9.067-97.738c.003-.008.003-.016.003-.023 4.415-47.704-30.789-90.11-78.488-94.56-.015-.003-.027-.003-.043-.003-47.719-4.418-90.156 30.8-94.582 78.527 0 .012-.004.024-.004.035l-9.062 97.704-2.055 22.144-41.266-69.203c-12.457-20.883-35.394-33.855-59.863-33.855a69.196 69.196 0 00-35.433 9.761c-32.914 19.63-43.727 62.38-24.098 95.293l75.668 126.887c12.457 20.883 35.394 33.855 59.863 33.855a69.24 69.24 0 0035.434-9.757 69.496 69.496 0 0012.394-9.442 86.43 86.43 0 0019.23 12.883l-7.433 7.105c-34.66 33.11-35.922 88.243-2.812 122.899 16.504 17.277 38.836 26.793 62.883 26.793 22.515 0 43.832-8.52 60.02-23.98l138.105-131.93c16.726-15.98 26.234-37.598 26.765-60.871.531-23.274-7.973-45.301-23.953-62.032zM44.137 122.664a49.186 49.186 0 0125.187-6.937c17.465 0 33.82 9.234 42.688 24.101l31.992 53.652c-14.809 4.415-30.293 11.336-45.477 20.391-15.183 9.059-28.636 19.39-39.558 30.32L26.973 190.54c-13.98-23.445-6.282-53.89 17.164-67.875zm126.379 211.922a49.2 49.2 0 01-25.192 6.937c-17.46 0-33.82-9.234-42.683-24.101L69.59 262c10.238-11.02 23.906-21.844 39.18-30.953 15.27-9.106 31.292-15.988 45.855-19.758l33.05 55.426c10.5 17.605 8.77 39.164-2.675 54.73-.14.172-.273.344-.402.524a49.242 49.242 0 01-14.082 12.617zm34.964-8.055c11.985-21.062 12.645-47.804-.628-70.062l-17.016-28.535 3.918-42.246c8.957-1.868 18.668-3.118 28.996-3.711 5.512-.317 9.727-5.043 9.41-10.559-.316-5.512-5.043-9.695-10.555-9.41-9.058.52-17.73 1.504-25.925 2.937l7.808-84.195v-.016c3.414-36.734 36.07-63.843 72.809-60.445h.012c36.742 3.406 63.863 36.07 60.464 72.809 0 .007-.003.011-.003.015l-7.81 84.196c-7.788-2.918-16.132-5.477-24.937-7.653-5.359-1.324-10.78 1.946-12.105 7.309-1.328 5.36 1.945 10.781 7.309 12.105 10.039 2.48 19.355 5.5 27.808 8.98l-5.043 54.36-91.87 87.766a66.577 66.577 0 01-22.642-13.645zm105.747 147.031c-12.45 11.891-28.86 18.442-46.207 18.442-18.532 0-35.727-7.32-48.422-20.606-25.489-26.687-24.52-69.136 2.168-94.625l61.898-59.132c17.656 9.894 36.2 24.613 52.863 42.058 16.664 17.446 30.52 36.64 39.594 54.73zm138.101-131.93l-61.152 58.419c-9.89-18.207-23.824-37.04-40.188-54.164-16.363-17.13-34.539-31.914-52.27-42.625l61.15-58.418c12.448-11.89 28.859-18.442 46.206-18.442 18.531 0 35.727 7.32 48.422 20.606 12.29 12.867 18.832 29.828 18.422 47.758-.41 17.933-7.723 34.578-20.59 46.867zm0 0"/><path d="M260.168 162.777c-5.508 0-10 4.493-10 10 0 5.508 4.492 10 10 10s10-4.492 10-10c0-5.507-4.492-10-10-10zm0 0"/></g></svg>