<svg xmlns="http://www.w3.org/2000/svg" width="512" height="512"><g data-name="Truck"><path d="M128 216a72 72 0 10-72-72 72.081 72.081 0 0072 72zm0-128a56 56 0 11-56 56 56.063 56.063 0 0156-56z"/><path d="M138.343 165.657a8 8 0 0011.314-11.314L136 140.687V104a8 8 0 00-16 0v40a8 8 0 002.343 5.657zM232 360h64a8 8 0 000-16h-64a8 8 0 000 16zm88 0h8a8 8 0 000-16h-8a8 8 0 000 16zm-232-8a24 24 0 1024 24 24.027 24.027 0 00-24-24zm0 32a8 8 0 118-8 8.009 8.009 0 01-8 8zm336-32a24 24 0 1024 24 24.027 24.027 0 00-24-24zm0 32a8 8 0 118-8 8.009 8.009 0 01-8 8z"/><path d="M496 280h-10.291l-31.144-90.6A8 8 0 00447 184h-87v-64a8 8 0 00-8-8H218.509a96 96 0 00-181.018 0H16a8 8 0 00-8 8v256a8 8 0 008 8h16.581a55.992 55.992 0 00110.838 0h225.162a55.992 55.992 0 00110.838 0H496a8 8 0 008-8v-88a8 8 0 00-8-8zm-54.709-80l27.5 80H360v-80zM128 64a80 80 0 11-80 80 80.091 80.091 0 0180-80zM24 128h9.341a96 96 0 10189.318 0H344v240H143.419a55.992 55.992 0 00-110.838 0H24zm64 288a40 40 0 1140-40 40.045 40.045 0 01-40 40zm336 0a40 40 0 1140-40 40.045 40.045 0 01-40 40zm64-48h-8.581a55.992 55.992 0 00-110.838 0H360v-72h128z"/></g></svg>