<svg height="512" width="512" xmlns="http://www.w3.org/2000/svg"><path d="M15 277.99h62.914c-.767 24.057 3.302 46.84 11.857 67.303L32.959 458.917a15 15 0 0020.124 20.124L166.7 422.233c18.838 7.876 39.631 11.958 61.585 11.958.57 0 1.144-.014 1.715-.02V497c0 8.284 6.716 15 15 15 41.355 0 75-33.645 75-75v-26.094c19.881-10.408 38.538-24.104 55.155-40.717l.025-.023.023-.025c10.839-10.842 20.43-22.556 28.686-34.906l4.931 4.931c16.513 16.513 25.606 38.468 25.606 61.82a15 15 0 0025.607 10.606l21.213-21.213c19.832-19.833 30.754-46.2 30.754-74.247s-10.922-54.415-30.754-74.246l-21.213-21.213a104.952 104.952 0 00-21.805-16.744c-1.062-9.871-2.991-19.442-5.753-28.634a52.044 52.044 0 0022.551-13.254c33.07-33.069 44.65-82.01 29.845-126.424a15 15 0 00-9.487-9.487c-44.372-14.79-93.319-3.259-126.424 29.845a52.044 52.044 0 00-13.247 22.552c-9.195-2.763-18.767-4.693-28.641-5.755a104.96 104.96 0 00-16.744-21.805l-21.213-21.213C249.282 10.922 222.915 0 194.868 0c-28.046 0-54.414 10.922-74.246 30.754L99.409 51.967a15.002 15.002 0 0010.606 25.607c23.353 0 45.307 9.094 61.82 25.607l4.93 4.93c-12.359 8.262-24.081 17.86-34.93 28.709-15.505 15.505-28.468 32.786-38.593 51.18H75c-41.355 0-75 33.645-75 75 0 8.284 6.716 14.99 15 14.99zm137.84-108.952l46.079 46.079-15.91 47.73-75.108 25.036c-1.219-39.86 14.122-83.097 44.939-118.845zm140.059-66.154l-25.037 75.111-47.73 15.91-46.082-46.082c33.196-28.618 75.951-46.251 118.849-44.939zm82.282 33.936c14.611 14.611 24.425 32.502 29.615 52.098l-78.597 26.199-29.316-29.315 26.199-78.597c19.595 5.191 37.488 15.004 52.099 29.615zm-11.006 201.127l-46.079-46.08 15.911-47.73 75.108-25.036c1.218 39.861-14.123 83.098-44.94 118.846zm-222.34 32.218c-14.611-14.611-24.425-32.502-29.615-52.098l78.598-26.199 29.315 29.315-26.21 78.629c-19.969-5.289-37.742-15.301-52.088-29.647zm99.511-70.195l-29.316-29.316 15.91-47.73 47.73-15.91 29.316 29.316-15.91 47.73zM79.917 432.083l27.779-55.559c3.94 5.208 8.246 10.172 12.926 14.853s9.644 8.986 14.853 12.926zM224.11 404.12l25.043-75.13 47.729-15.91 46.084 46.084c-29.517 25.484-64.82 41.117-100.817 44.39-6.115.556-12.136.741-18.039.566zM290 437c0 19.556-12.539 36.239-30 42.43v-48.004a198.447 198.447 0 0030-7.645zm192-119.868c0 20.012-7.786 38.829-21.924 52.99-5.367-19.158-15.59-36.716-30.043-51.17l-10.722-10.722c10.092-21.046 16.532-43.332 18.884-65.943.207.202.42.394.625.599l21.213 21.213c14.166 14.166 21.967 33 21.967 53.033zM370.172 78.188c23.398-23.398 56.667-32.538 88.367-24.727 7.813 31.703-1.329 64.969-24.727 88.366a22.063 22.063 0 01-13.06 6.324 142.436 142.436 0 00-24.359-32.544 142.433 142.433 0 00-32.544-24.36 22.062 22.062 0 016.323-13.059zm-177.124 3.779c-14.453-14.454-32.012-24.676-51.17-30.043C156.039 37.785 174.854 30 194.868 30c20.034 0 38.868 7.801 53.033 21.967 0 0 21.61 21.632 21.812 21.838-22.611 2.352-44.896 8.792-65.942 18.884zM75 218h14.62a200.08 200.08 0 00-8.313 30H32.57c6.191-17.461 22.874-30 42.43-30z"/></svg>