<svg xmlns="http://www.w3.org/2000/svg" viewBox="0 0 512 512"><path d="M304.2 267.3l-1.9-.6 1.6-1.1c24.2-16.6 38.6-44 38.6-73.2 0-49-39.9-88.9-88.9-88.9-49 0-88.9 39.9-88.9 88.9 0 29.2 14.4 56.6 38.6 73.2l1.6 1.1-1.9.6c-22.2 7.6-41.9 20-58.7 36.8-28.9 28.9-45 67.3-45.2 108.2h22.3c.5-72.4 59.6-131.1 132.1-131.1s131.6 58.7 132.1 131.1h22.3c-.3-40.9-16.3-79.3-45.2-108.2-16.6-16.8-36.4-29.2-58.5-36.8zm-50.5-8.4c-36.7 0-66.6-29.9-66.6-66.6s29.9-66.6 66.6-66.6c36.7 0 66.6 29.9 66.6 66.6s-29.9 66.6-66.6 66.6z"/><circle cx="250" cy="257.1" r="210" fill="none" stroke="#000" stroke-width="22.465" stroke-miterlimit="10"/></svg>