<svg xmlns="http://www.w3.org/2000/svg" width="37.902" height="37.902"><path d="M23.035 25.926v5.875c0 .434-.435.785-.962.785s-.96-.354-.96-.785v-5.875c0-.438.433-.789.96-.789s.962.351.962.789zM15.673 7.905c0-1 .084-1.78.25-2.345.166-.56.466-1.009.899-1.35.433-.342.986-.513 1.66-.513.565 0 1.051.11 1.455.329.408.219.724.503.939.854.223.353.373.713.453 1.084.083.375.123.94.123 1.703V10.3c0 .967-.039 1.678-.113 2.127a3.378 3.378 0 01-.48 1.268c-.244.389-.562.68-.942.863-.387.188-.828.279-1.328.279-.559 0-1.028-.076-1.416-.238a1.91 1.91 0 01-.902-.721c-.216-.32-.368-.713-.46-1.168-.092-.455-.137-1.141-.137-2.053V7.905zm1.918 4.135c0 .59.438 1.071.973 1.071.535 0 .972-.481.972-1.071V6.498c0-.589-.437-1.069-.972-1.069-.534 0-.973.48-.973 1.069v5.542zm5.504 1.745c.11.273.287.498.525.667.234.166.538.249.896.249.316 0 .6-.086.844-.264.242-.176.447-.438.615-.786l-.043.86h2.449V4.102h-1.928v8.104a.803.803 0 01-1.608 0V4.102h-2.012v7.021c0 .896.018 1.491.042 1.793.035.302.103.591.22.869zm-12.28 1.054h2.31l.003-7.984 2.729-6.84h-2.525l-1.451 5.08L10.409 0H7.91l2.903 6.858.002 7.981zm19.084 11.675a.982.982 0 00-.982-.977h-.132a.98.98 0 00-.979.977l-.01 1.209h2.08l.023-1.209zm4.844-4.666v11.18c0 2.682-2.325 4.875-5.167 4.875H8.326c-2.843 0-5.167-2.193-5.167-4.875v-11.18c0-2.682 2.324-4.876 5.167-4.876h21.25c2.842 0 5.167 2.195 5.167 4.876zM9.744 34.24l-.002-11.773h2.635v-1.744l-7.022-.012v1.717l2.192.006V34.24h2.197zm7.895-10.019h-2.196v6.287c0 .908.056 1.363-.003 1.523-.179.486-.981 1.006-1.294.053-.054-.166-.007-.67-.007-1.531l-.01-6.332h-2.184l.007 6.229c.002.955-.021 1.668.007 1.992.054.57.035 1.236.565 1.617.988.713 2.882-.105 3.355-1.123l-.005 1.299 1.764.002.001-10.016zm7.027 7.199l-.005-5.232c-.002-1.994-1.494-3.189-3.521-1.576l.011-3.891-2.194.004-.011 13.43 1.804-.027.164-.836c2.308 2.112 3.755.663 3.752-1.872zm6.873-.695l-1.646.01c0 .064-.004.141-.004.223v.918a.9.9 0 01-.899.895h-.322a.899.899 0 01-.899-.895v-2.419h3.771v-1.42c0-1.035-.025-2.072-.109-2.666-.271-1.877-2.903-2.174-4.233-1.213a2.495 2.495 0 00-.923 1.24c-.188.539-.278 1.275-.278 2.213v3.119c-.007 5.19 6.294 4.456 5.542-.005z"/></svg>