<svg xmlns="http://www.w3.org/2000/svg" viewBox="0 0 512 512"><path d="M459.9 33.6c-57.8 0-114.2-10.9-167.9-32.3L288.9 0l-3.1 1.2c-53.6 21.5-110 32.3-167.8 32.3H99.6v172.8H58.5c-13.6 0-24.7 11.1-24.7 24.7v140c0 13.6 11.1 24.7 24.7 24.7h74.1c19.4 30.9 46.4 56.4 78.5 73.9l77.8 42.5 77.8-42.5c68.7-37.5 111.4-109.4 111.4-187.7V33.6h-18.2zM50.3 371V231.1c0-4.5 3.7-8.2 8.2-8.2h74.1c4.5 0 8.2 3.7 8.2 8.2V371c0 4.5-3.7 8.2-8.2 8.2H58.5c-4.5 0-8.2-3.7-8.2-8.2zm106.9-123.6c27.5-1.5 49.4-24.3 49.4-52.2v-42.4c0-11.3 9.2-20.6 20.6-20.6 11.3 0 20.6 9.2 20.6 20.6v51.8c0 14.5 11.8 26.4 26.4 26.4h60.3c15.7 0 28.5 12.8 28.5 28.5v91.1c0 15.7-12.8 28.5-28.5 28.5H213.2c-6.5 0-12.6-3.3-16.2-8.7-6.7-10-17.9-16-29.9-16h-9.9v-107zm304.5 34.4c0 72.3-39.4 138.7-102.9 173.3l-70 38.2-70-38.2c-28.6-15.6-52.8-38.1-70.6-65.3 5-4.2 8.3-10.3 8.7-17.2 16.6 28.6 40.5 52.1 69.8 68.1l62.1 33.9 62.1-33.9c58.2-31.7 94.3-92.6 94.3-158.8V157h-16.5v124.8c0 60.2-32.8 115.5-85.7 144.4l-54.2 29.6-54.2-29.6c-23.2-12.6-42.7-30.5-57.3-52.2 2.3 1.4 4.4 3.3 5.9 5.6 6.7 10 17.9 16 29.9 16h121.3c24.8 0 45-20.2 45-45v-91.1c0-24.8-20.2-45-45-45h-60.3c-5.5 0-9.9-4.5-9.9-9.9v-51.8c0-20.4-16.6-37-37-37s-37 16.6-37 37v42.4c0 18.8-14.6 34-33 35.5-.1-7.2-3.3-13.5-8.2-18V82c47.8-2.9 94.8-12.7 139.9-29.1C334 69.3 381 79 428.8 82v9.2h16.5V66.3l-7.9-.4c-49.8-2.3-98.8-12.2-145.7-29.5l-2.9-1.1-2.9 1.1C239.2 53.7 190.2 63.7 140.4 66l-7.9.4v140H116V50h1.9c58.8 0 116.3-10.9 170.9-32.3C343.6 39.1 401.1 50 459.8 50h1.9v231.8z" fill="#1d1d1b"/><path fill="#333" d="M428.8 81.5h16.5v88.6h-16.5z"/><path fill="#76ce31" d="M66.7 238h57.6v124.7H66.7z"/></svg>