<svg class="icon-telephone" xmlns="http://www.w3.org/2000/svg" viewBox="0 0 482.6 482.6"><path class="st0" d="M151.2 268.6c20.1 39.1 47.3 72.4 81 99.1 12.8 10.1 30.2 22.5 51.3 28.7 1.3.4 2.6.7 3.9 1 14.3 3.2 27.1.9 38.7-7.3.1-.1.2-.2.3-.2 4.2-3.3 8.9-6.1 13.7-9 3.3-2 6.7-4 9.9-6.3 15.2-10 18.8-26.3 9.3-41.6l-26.8-42.3c-4.5-7.5-10.9-12.3-18.2-13.9-7.4-1.7-15.3-.1-22.7 4.6l-25.3 16c-1.7-1.5-3.4-2.9-5.1-4.3-2.1-1.7-4-3.3-5.5-4.9-16.1-16.2-29.7-35.6-41.6-59.4-5.9-12.3-9.4-22.3-11.3-32.2 6.6-3.6 12.8-7.7 18.8-11.5 2.2-1.4 4.3-2.8 6.5-4.2 7.7-4.8 12.6-11.3 14.2-18.6 1.7-7.3 0-15.3-4.9-22.9l-13.3-21c-1.6-2.5-3-4.9-4.5-7.4-2.9-4.8-6-9.8-9.1-14.2-4.6-7.2-11-11.8-18.3-13.5-7.3-1.7-15-.2-22.6 4.3l-26.4 16.7c-9.6 6-16.2 14.6-19.7 25.4-4.2 13.5-5 28.8-2.4 47.9 4.2 29.8 13.6 58.7 30.1 91zm-13.7-134.5c2.4-7.6 6.8-13.2 13.6-17.5l26.3-16.6c4-2.5 8.1-3.3 11.7-2.5 3.5.8 6.7 3.3 9.3 7.3 3.1 4.5 5.9 9 8.9 13.9 1.5 2.5 3.1 4.9 4.7 7.5l13.3 21c2.8 4.4 3.8 8.5 3 12.1s-3.5 6.8-7.9 9.6c-2.2 1.4-4.4 2.8-6.6 4.3-6.6 4.3-12.8 8.2-19.4 11.9-.1.1-.2.2-.4.2-5.9 3.7-6.1 8.5-5.8 12.1.1.2 0 .3.1.5 2.1 11.6 5.9 23.3 12.9 37.5 12.5 25.3 27 46 44.3 63.3 2.1 2.2 4.5 4.1 6.7 5.9 2.1 1.7 4 3.3 5.5 4.9.2.1.3.3.6.5 1.7 1.4 3.4 2.3 5.2 2.7 4.6 1 8.3-1.2 9.5-2l26.4-16.7c4.1-2.6 8.2-3.6 11.7-2.8 4.4 1 7.4 4.5 9.1 7.5l27 42.6c5.4 8.5 3.6 16-5.1 21.7-3 2.1-6.1 4-9.4 6-4.9 3-10.1 6.1-14.9 9.8-8.2 5.6-16.9 7.3-27.2 4.9-1-.2-2-.6-3-.8-18.7-5.4-34.6-16.8-46.4-26.1-32-25.5-57.9-57.2-77-94.5-15.7-30.8-24.7-58.2-28.5-86.2-2.3-17.4-1.7-30.6 1.8-42z"/><circle class="st1" cx="241.3" cy="241.3" r="237"/></svg>